<svg transform="scale(1)" version="1.1" id="FNQoV8ukxD" xmlns="http://www.w3.org/2000/svg" xmlns:xlink="http://www.w3.org/1999/xlink" x="0px" y="0px" viewBox="0 0 500 500" xml:space="preserve" class="pbimage_pbimage__wrapper__image__0LEis false"><title>Message Sent 1</title><style type="text/css"> .st0{fill:#000005;} .st1{fill:#FFFFFF;} .st2{fill:#59BE4C;}
 .st2{fill:#3f3f3f;}
 .st1{fill:#FFFFFF;}
 .st0{fill:#000005;}</style><g id="character"><path class="st0" d="M395.6,402.2c0,0,20.8,26.1,21.5,25.4s11.1-10.3,11.1-10.3l-8.8-10l14.9,6.4l33.8-33.2c0,0-2-4.6-13.6-1.6
		s-29.4,8.7-29.4,8.7L411.8,373L395.6,402.2z" fill="#000005"></path><path class="st0" d="M395.1,402.5c4.2,5.3,8.5,10.5,12.8,15.7c2.4,2.9,4.8,5.8,7.4,8.5c0.4,0.5,1.1,1.4,1.8,1.4
		c0.9,0.1,2.1-1.5,2.7-2c3-2.8,6.1-5.7,9.1-8.5c0.1-0.1,0.2-0.3,0.1-0.5l-8.8-10l-1,0.6l14.9,6.4c0.3,0.1,0.6,0.1,0.9-0.2l11.4-11.2
		l18.2-18l4.2-4.1c0.1-0.1,0.2-0.3,0.1-0.5c-0.6-0.9-1.4-1.6-2.4-2c-3.1-1.4-6.8-0.9-10-0.2c-4.3,0.9-8.6,2.3-12.9,3.5
		c-4,1.2-8,2.4-12,3.6c-2.1,0.7-4.3,1.3-6.4,2l0.7,0.1l-13.4-14.6c-0.4-0.2-0.8-0.1-1.1,0.2L397,398.5l-2,3.6
		c-0.3,0.6,0.9,0.7,1.1,0.2l14.2-25.7l2-3.6l-1.1,0.2l13.4,14.6c0.2,0.2,0.5,0.1,0.7,0.1c5-1.6,10.1-3.2,15.1-4.6
		c4.1-1.2,8.2-2.4,12.4-3.5c3.7-1,7.8-2.1,11.6-1.1c1.1,0.3,2.6,0.9,3.1,2l0.1-0.4l-11.4,11.2l-18.2,18l-4.2,4.1l0.9-0.2l-14.9-6.4
		c-0.3-0.1-1.4,0.1-0.9,0.6l8.8,10l0.1-0.5l-7.4,6.9l-2.2,2c-0.4,0.4-1.1,0.8-1.4,1.3s0.6-0.1,0.6,0s-0.2-0.1-0.3-0.2
		c-0.3-0.3-0.6-0.6-0.9-0.9c-5.5-5.8-10.3-12.1-15.3-18.3c-1.6-1.9-3.1-3.9-4.7-5.8C395.9,401.6,394.7,402,395.1,402.5z" fill="#000005"></path><path class="st0" d="M160,367.7c0,0-33.2-3.7-33.2-2.8s-0.5,15.1-0.5,15.1l13.3,0.9l-15.1,6l-0.4,47.4c0,0,4.7,1.8,10.8-8.5
		s14.6-26.9,14.6-26.9l19.8,0.9L160,367.7z" fill="#000005"></path><path class="st0" d="M160.3,367.2c-6.7-0.7-13.3-1.4-19.9-2.1c-3.8-0.4-7.6-0.8-11.4-0.9c-0.8-0.1-1.6-0.1-2.4,0.2
		c-0.8,0.5-0.4,2.4-0.4,3.2c-0.1,4.1-0.3,8.3-0.4,12.4c0,0.3,0.2,0.4,0.5,0.5l13.3,0.9l-0.1-0.8l-15.1,6c-0.1,0-0.4,0.2-0.4,0.4
		l-0.2,16l-0.2,25.6v5.8c0,0.2,0.1,0.3,0.2,0.4c1.1,0.3,2.3,0.2,3.3-0.2c3.2-1.2,5.6-4.1,7.4-6.9c2.4-3.7,4.5-7.8,6.7-11.7
		c2-3.7,4-7.4,6-11.1c1-1.9,2-3.8,3-5.7l-0.6,0.3l19.8,0.9c0.2,0,0.8-0.2,0.7-0.6l-8.1-28.2l-1.1-4c-0.2-0.6-1.4-0.3-1.2,0.2l8,28.2
		l1.1,4l0.7-0.6l-19.8-0.9c-0.3,0-0.5,0.1-0.7,0.3c-2.3,4.5-4.7,9-7.2,13.5c-2,3.6-4,7.2-6,10.8c-2,3.5-4.1,7.4-7.5,9.7
		c-0.8,0.6-1.8,1-2.8,1.1c-0.2,0-0.6-0.1-0.8,0s-0.3-0.1-0.2,0l0.2,0.4l0.2-16l0.2-25.6v-5.8l-0.4,0.4l15.1-6
		c0.6-0.2,0.4-0.8-0.1-0.8l-13.3-0.9l0.5,0.5c0.1-3.4,0.2-6.8,0.3-10.1c0-1,0.1-2,0.1-2.9c0.1-0.6,0.1-1.2,0.1-1.9c0,0,0-0.2,0-0.2
		s-0.3,0.3-0.3,0.3s0.1,0,0.2,0c0.4,0,0.9,0,1.3,0c7.9,0.2,15.9,1.3,23.8,2.1c2.5,0.3,4.9,0.5,7.4,0.8
		C160.4,368.2,161.1,367.3,160.3,367.2z" fill="#000005"></path><polygon class="st1" points="329.9,356.1 396.7,412.6 425.9,379.5 346.4,305 	" fill="#FFFFFF"></polygon><path class="st0" d="M328.7,358.1l6.6,5.6l16,13.5l19.3,16.3l16.7,14.1c2.7,2.3,5.3,4.7,8.1,6.8l0.1,0.1c0.8,0.7,2,0.6,2.8-0.1
		l9.9-11.2l15.7-17.8l3.6-4.1c1-1.1,0.9-2.8-0.2-3.8c-0.1,0-0.1-0.1-0.2-0.1l-7.9-7.4l-19-17.8l-22.9-21.5l-19.8-18.6l-6.6-6.1
		c-1-1-2-2-3.1-2.9l-0.1-0.1c-0.9-0.7-2.3-0.6-3,0.3c-0.2,0.2-0.3,0.5-0.4,0.7l-5.6,17.3l-8.9,27.5l-2,6.3c-0.9,2.8,3.4,4.8,4.4,1.8
		l5.6-17.3l8.9-27.5l2-6.3l-3.4,1.1l7.9,7.4l19,17.8l22.9,21.5l19.8,18.6l6.6,6.1c1,1,2,2,3.1,2.9l0.1,0.1l-0.4-3.9l-9.9,11.2
		l-15.7,17.7l-3.6,4.1l2.8-0.1l-6.7-5.6l-16-13.5L356,375.2l-16.7-14.1c-2.7-2.3-5.3-4.7-8.1-6.8c0,0-0.1-0.1-0.1-0.1
		c-0.9-0.7-2.3-0.6-3,0.3c0,0.1-0.1,0.1-0.1,0.2C327.3,355.9,327.7,357.3,328.7,358.1z" fill="#000005"></path><path class="st1" d="M270.8,364.6c0,0,0.8,34.6-18.6,41.4s-91.8-0.7-91.8-0.7l-12.9-40.7L270.8,364.6z" fill="#FFFFFF"></path><path class="st0" d="M268.3,365.1v0.1C268.3,365.6,268.3,364.9,268.3,365.1c0,0.5,0,1,0,1.4c0,1.6-0.1,3.2-0.2,4.8
		c-0.4,4.9-1.2,9.7-2.5,14.5c-1.4,5-3.7,10.1-7.2,13.9c-1.6,1.8-3.6,3.3-5.9,4.3c-0.5,0.2-1.1,0.4-1.6,0.6l-0.6,0.2l0.3-0.1
		l-0.5,0.1c-0.9,0.2-1.8,0.4-2.6,0.6c-2.2,0.4-4.4,0.7-6.5,0.9l-0.9,0.1h-0.4c0.1,0,0.5,0,0,0l-1.9,0.1c-1.3,0.1-2.7,0.2-4,0.2
		c-5.9,0.3-11.8,0.3-17.7,0.2c-11.9-0.2-23.7-0.9-35.5-1.8c-4.4-0.3-8.7-0.7-13.1-1.1c-2.1-0.2-4.3-0.5-6.4-0.6h-0.3l2.1,1.4
		l-4.4-13.7l-7-22l-1.6-5l-2.8,2.3h108.1c5,0,10,0.1,15,0h0.2c1.1,0,2.6-0.6,2.8-1.8s-1.1-1.9-2.1-1.9H162.9c-5,0-10-0.1-15,0h-0.2
		c-1,0-3.2,0.9-2.8,2.3l4.4,13.7l7,22l1.6,5c0.3,0.9,1.2,1.5,2.1,1.4c5.6,0.6,11.1,1,16.7,1.5c11.9,0.9,23.8,1.6,35.8,1.9
		c11.2,0.3,22.7,0.5,33.8-1.3c4.7-0.8,9.3-2.1,13.1-5.1c4.4-3.7,7.7-8.6,9.6-14c2.9-8,4.3-16.5,4.2-25.1v-0.9c0-1.2-1.9-1.5-2.8-1.4
		C269.2,362.9,268.3,363.9,268.3,365.1z" fill="#000005"></path><polygon class="st2" points="322,382.3 39.4,381.7 109.7,230.6 392.3,231.2 	" fill="#3f3f3f"></polygon><path class="st2" d="M322,381.9h-7.6h-20.6l-30.3-0.1l-37.1-0.1l-40.7-0.1l-40.9-0.1l-38.3-0.1l-32.2-0.1l-23.3,0
		c-3.7,0-7.4-0.1-11,0h-0.5l2.5,0.4l7-15l16.7-36.2L86,287l17.6-37.8l5.8-12.5l1.8-3.8c0.4-0.7,0.7-1.4,1-2.1c0-0.1,0.1-0.2,0.1-0.2
		l-2.5,0.4h7.6l20.6,0.1l30.3,0.1l37.1,0.1l40.7,0.1l40.9,0.1l38.3,0.1l32.2,0.1l23.3,0.1c3.7,0,7.4,0.1,11,0h0.5l-2.5-0.4l-7,15
		L366,282.4L345.7,326l-17.6,37.8l-5.8,12.5l-1.8,3.7c-0.4,0.6-0.8,1.3-1,2.1c0,0.1-0.1,0.2-0.1,0.3c0-0.1,4.5,1,5-0.1l7-15
		l16.8-36.1l20.3-43.5l17.6-37.8l5.8-12.5l1.8-3.8c0.4-0.6,0.8-1.3,1-2.1c0-0.1,0.1-0.2,0.1-0.3c0.1-0.3-2.5-0.4-2.5-0.4h-7.6h-20.6
		l-30.3-0.1l-37.1-0.1l-40.7-0.1l-40.9-0.1l-38.3-0.1l-32.2-0.1l-23.3-0.1c-3.7,0-7.3,0-11,0h-0.5c-0.5,0-2.2-0.1-2.5,0.4l-7,15
		l-16.8,36l-20.3,43.5l-17.6,37.8l-5.8,12.5l-1.8,3.8c-0.4,0.6-0.8,1.3-1,2.1c0,0.1-0.1,0.2-0.1,0.3c-0.1,0.3,2.5,0.4,2.5,0.4H47
		l20.6,0l30.3,0.1l37.2,0.1l40.7,0.1l40.9,0.1l38.3,0.1l32.2,0.1l23.3,0c3.7,0,7.4,0,11,0h0.5c0.3,0,2.5,0,2.5-0.4
		S322.1,381.9,322,381.9z" fill="#3f3f3f"></path><path class="st0" d="M114.6,237l10.1,8.4l24.2,20.1l29.2,24.2l25.2,20.9c4.1,3.4,8.1,7,12.3,10.2l0.2,0.1c0.4,0.4,1.1,0.5,1.6,0.3
		l4.5-2.2l12.3-6l18.1-9l22.1-10.8l24.2-11.9l24.5-12l22.8-11.2l19.2-9.4l13.9-6.8c2.1-1.1,4.5-2,6.6-3.2c0.1-0.1,0.2-0.1,0.3-0.1
		c1.4-0.7-1.4-4.8-3.1-3.9l-4.5,2.2l-12.3,6l-18,8.9l-22.1,10.8l-24.3,12l-24.5,12l-22.8,11.2l-19.2,9.4l-13.9,6.8
		c-2.3,1-4.4,2-6.6,3.2c-0.1,0.1-0.2,0.1-0.3,0.1l1.6,0.3l-10.1-8.4l-24.2-20l-29.3-24.2l-25.2-20.9c-4.1-3.4-8.1-7-12.3-10.2
		l-0.2-0.1c-0.7-0.6-1.8-0.7-1.9,0.4S113.9,236.3,114.6,237L114.6,237z" fill="#000005"></path><path class="st0" d="M63.1,369.8l11.9-7.6l28.4-18l34.6-22l29.7-18.9l9.8-6.2c1.6-1,3.2-1.9,4.7-3l0.2-0.1c1.6-1-1-5.3-2.5-4.3
		l-11.9,7.6l-28.4,18l-34.6,22l-29.7,18.9l-9.8,6.2c-1.5,1-3.2,1.9-4.7,3c-0.1,0-0.1,0.1-0.2,0.1C59,366.6,61.6,370.9,63.1,369.8
		L63.1,369.8z" fill="#000005"></path><path class="st0" d="M258.5,294l5.4,7.4l12.9,17.7l15.6,21.4l13.6,18.6c2.2,3,4.3,6.1,6.6,9l0.1,0.1c0.7,0.9,1.7,1.7,2.8,2.1
		c0.8,0.3,1,0.1,0.5-0.7l-5.4-7.4l-12.9-17.7L282,323.2l-13.6-18.6c-2.2-3-4.3-6.1-6.6-9c0,0-0.1-0.1-0.1-0.1
		c-0.7-0.9-1.7-1.7-2.8-2.1C258.1,293,257.9,293.2,258.5,294L258.5,294z" fill="#000005"></path><path class="st1" d="M236.2,211.6c0,0-24.4,18.6-26,27.6c-3.2,18.1,44.9,58.7,53.8,66.8s24.2,17.3,23.8,8.6c0,0,10.8,6.6,9.4-2.4
		c0,0,11.1,3.1,5.1-5c-5.8-7.7-19-19.5-19-19.5s2.3-2.4,7.7-4.2s7.8-6.4,0.9-8.9s-11.4-2.1-25.9,0.1l-22.5-33.2l13.7-10.3
		L236.2,211.6z" fill="#FFFFFF"></path><path class="st0" d="M234.6,209.7c-7.4,5.5-14.3,11.7-20.5,18.6c-2.9,3.3-6,7.1-5.9,11.7s2.3,9,4.5,12.9
		c6.1,10.8,15,20.2,23.6,28.9c7.6,7.7,15.7,15,23.8,22.3c3.9,3.7,8.1,7.1,12.5,10.2c3,2.1,6.3,3.9,9.8,5.2c1.8,0.6,4.8,1.5,6.3-0.3
		c0.7-0.9,1-2,0.8-3.2l-1.2,0.5c1.8,1.1,3.8,2,5.9,2.4c1.2,0.4,2.6,0.2,3.7-0.6c1.3-1.1,1.3-3.2,1-4.8l-0.8,0.7
		c1.5,0.4,3.1,0.6,4.6,0.6c0.9,0,1.8-0.3,2.5-0.8c1-1,0.5-2.6,0.1-3.7c-1.5-3.8-4.9-7-7.6-10s-5.8-6-8.8-8.9
		c-1.7-1.6-3.5-3.3-5.3-4.9l1.2,3.1c2.1-2.2,5.1-3.3,7.9-4.3c2.9-1.1,6.2-3.5,4.8-7.1c-1.5-4-5.7-5.6-9.5-6.6
		c-2.8-0.7-5.6-1-8.5-0.8c-5,0.3-10,0.9-14.9,1.8l2.5,1.9l-19.7-29.1l-2.8-4.1l0.4,2.1l13.7-10.3c0.9-0.7-0.8-2.7-1.2-3.1
		l-18.4-17.2l-2.6-2.4c-0.4-0.4-1.6-1.4-2.1-0.5s0.9,2.4,1.4,2.9l18.4,17.2l2.6,2.4l-1.2-3.1l-13.7,10.2c-0.6,0.4,0.1,1.7,0.4,2.1
		l19.7,29.1l2.8,4.1c0.5,0.7,1.5,2.1,2.5,1.9c4.1-0.6,8.2-1.3,12.4-1.6c2.6-0.3,5.3-0.2,7.9,0.1c0.8,0.1,7.5,1.7,7.2,2.4
		c0,0-0.6-0.7-0.5-0.7c0,0.2,0,0.4,0,0.6c-0.1,0.6-0.4,1.2-0.9,1.6c-1.2,1.2-2.6,2-4.2,2.5c-2.6,0.9-5.5,2.2-7.5,4.2
		c-0.8,0.8,0.7,2.6,1.2,3.1c3.9,3.5,7.7,7.1,11.3,10.8c2.6,2.5,5,5.3,7.2,8.2c0.3,0.4,0.6,0.9,0.8,1.4c-0.1-0.2,0,0.4,0,0.2
		c0,0.2,0.1,0.1-0.1,0.4c-0.4,0.5-1,0.8-1.6,0.8c-1.5,0.1-3,0-4.4-0.5c-0.5-0.1-0.9,0.1-0.8,0.7c0.2,1.2,0.4,2.9-0.8,3.6
		c-0.9,0.5-1.9,0.5-2.8,0.2c-1.6-0.4-3.1-1-4.5-1.9c-0.6-0.3-1.3-0.3-1.2,0.5c0.2,6.2-9.5,0.4-11.6-0.9c-4.5-2.9-8.7-6.2-12.5-9.8
		c-7.5-6.7-14.9-13.4-22.1-20.4c-4.4-4.4-8.6-8.7-12.6-13.2c-3.7-4.2-7.2-8.6-10.2-13.3c-0.3-0.5-0.7-1.1-1-1.6l-0.5-0.8l-0.2-0.4
		c-0.2-0.4,0,0-0.1-0.2c-0.6-1-1.1-2-1.6-3.1c-0.4-0.8-0.7-1.7-1-2.6c-0.1-0.4-0.3-0.9-0.4-1.3s-0.2-0.9-0.2-1.2
		c-0.3-1.6-0.2-3.2,0.3-4.7c0.8-2.1,2-4,3.4-5.7c3.7-4.5,7.8-8.6,12.2-12.4c3-2.7,6.2-5.3,9.4-7.8l0.5-0.4
		C238.9,212.6,235.8,208.7,234.6,209.7z" fill="#000005"></path><path class="st0" d="M272.7,302.6c2.8,3.4,5.8,6.7,9.1,9.6c1.3,1.2,2.6,2.2,4,3.2c0.8,0.5,2.3,0.2,3.1-0.1c0.2-0.1,2.2-0.7,1.6-1.2
		c-2.5-1.8-4.9-3.8-7-6c-1.8-1.8-3.5-3.7-5.2-5.6c-0.3-0.4-0.6-0.8-1-1.1s-1-0.2-1.2-0.2c-0.6,0-1.3,0.1-1.9,0.3
		C273.9,301.5,272.2,301.9,272.7,302.6L272.7,302.6z" fill="#000005"></path><path class="st0" d="M279.1,296.9c4.1,4.7,8.5,9.1,13.1,13.3c1.7,1.6,3.6,3,5.5,4.3c0.7,0.5,1.7,0.4,2.2-0.3
		c0.1-0.1,0.2-0.3,0.3-0.5c0.2-1.3-0.4-2.5-1.5-3.1l-1-0.7c-0.2-0.2,0.1,0.1,0.1,0.1l-0.2-0.2l-0.6-0.5c-0.8-0.6-1.5-1.3-2.3-1.9
		c-1.5-1.3-3-2.7-4.5-4.1c-2.5-2.4-4.8-4.9-7.1-7.4l-0.6-0.7c-0.3-0.3-0.6-0.7-0.1-0.1l-0.4-0.4c-0.7-0.8-1.9-1.7-2.9-0.9
		S278.5,296.2,279.1,296.9L279.1,296.9z" fill="#000005"></path><path class="st1" d="M257.1,231.2L232.9,207c0,0,49.4-29.1,72.8-16.8s17.7,41.2,17.7,41.2" fill="#FFFFFF"></path><path class="st0" d="M259.1,230.9l-21.3-21.3l-3-3l-0.2,1.7c4-2.4,8.2-4.5,12.4-6.5c8.9-4.4,18.1-7.9,27.6-10.6
		c5-1.4,10.1-2.2,15.2-2.6c2.3-0.1,4.5-0.1,6.8,0.2c1.9,0.2,3.8,0.6,5.6,1.3c0.5,0.2,1,0.4,1.4,0.6c0.3,0.1,0,0-0.1,0l0.4,0.2
		l0.8,0.4c1.3,0.7,2.5,1.4,3.7,2.3c2.2,1.6,4.2,3.5,5.9,5.7c2.9,3.8,5,8.2,6,12.9c0.9,3.9,1.4,7.8,1.3,11.8c0,2.1-0.2,4.2-0.5,6.2
		l-0.1,0.3c-0.4,1.9,4.4,3.4,4.7,1.7c1-5.4,1-10.9,0-16.3c-1.7-11-8.3-20.7-18-26.2c-9.1-5.2-20.2-4.7-30.2-2.7
		c-10.4,2.3-20.5,5.7-30.1,10.3c-5.5,2.4-10.8,5.2-16,8.2l-0.2,0.1c-0.5,0.2-0.7,0.8-0.5,1.3c0.1,0.1,0.2,0.3,0.3,0.4l21.3,21.3l3,3
		c0.9,0.9,2.1,1.3,3.3,1.2c1-0.2,1.4-1,0.6-1.8L259.1,230.9z" fill="#000005"></path><path class="st1" d="M327.6,151.8c0,0,5.4,10.3,13.6,12s24.5,2.5,24.3,10.9s-11.7,8.7-18.2,5.8c0,0-3.2,21.6-17.1,24.4
		s-18.9-2.1-21.8,6.4c0,0-18.5,1.1-16.3-15.6c0.4-2.6,1.2-25.3,22.8-30.8C314.9,164.9,327,162.5,327.6,151.8z" fill="#FFFFFF"></path><path class="st0" d="M325.5,153c1.7,3.1,3.8,5.8,6.4,8.2c2,1.9,4.4,3.4,7.1,4.2c2.3,0.6,4.6,1,7,1.3c4.7,0.8,9.8,1.4,13.9,3.7
		c0.7,0.4,1.3,0.9,1.9,1.4c0.6,0.5,1,1.2,1.2,2c0.1,0.3,0.2,0.7,0.1,1c0,0.5-0.1,1.1-0.2,1.6c-0.2,0.8-0.6,1.5-1.2,2.1
		c-0.1,0.1-0.6,0.5-0.3,0.3c-0.2,0.2-0.5,0.3-0.7,0.4l-0.3,0.2c-0.7,0.3,0.2-0.1-0.2,0.1c-0.3,0.1-0.6,0.2-0.8,0.3
		c-1.1,0.3-2.3,0.5-3.5,0.4c-2.5,0-4.9-0.5-7.2-1.5c-1.4-0.6-3,0.1-3.6,1.5c-0.1,0.2-0.1,0.3-0.1,0.5l-0.1,0.4
		c0,0.1-0.1,0.3-0.1,0.4s-0.2,1-0.1,0.3c-0.3,1.3-0.6,2.6-1,3.9c-1,3.6-2.6,7.1-4.6,10.3c-1,1.6-2.3,3.1-3.8,4.4
		c-1.4,1.2-3.2,2.1-5,2.6c-4.8,1.2-9.7,0.8-14.6,1.1c-1.9,0-3.8,0.5-5.5,1.5c-1.9,1.3-3.3,3.3-3.9,5.5l2.5-1.7c-0.3,0-0.6,0-1,0H307
		c0.9,0,0.1,0-0.1,0c-0.5,0-1-0.1-1.4-0.1s-1.1-0.2-1.6-0.3l-0.8-0.2l-0.4-0.1c0.5,0.1,0,0-0.1,0c-0.6-0.2-1.2-0.4-1.8-0.7
		c-0.3-0.1-0.6-0.2-0.9-0.4l-0.4-0.2c-0.4-0.2,0.2,0.1-0.2-0.1c-2.4-1.4-4.1-3.8-4.6-6.6c-0.3-2.3-0.2-4.6,0.2-6.9
		c0.1-1,0.2-1.9,0.4-2.9l0.1-0.8c0-0.2,0.1-0.3,0.1-0.5c-0.1,0.4,0,0,0-0.1c0.1-0.6,0.3-1.3,0.5-2c0.8-2.9,1.9-5.8,3.4-8.4
		c3.5-6.2,9.5-10.6,16.4-12.2c7.3-1.8,13.9-7.2,14.4-15.1c0.2-2.8-4.8-2.2-4.9,0.3c-0.1,1.9-0.7,3.8-1.8,5.4
		c-0.4,0.6-0.9,1.2-1.4,1.7c-0.3,0.3-0.7,0.6-1,0.9l-0.5,0.4c-0.4,0.3,0.1-0.1-0.3,0.2c-0.6,0.4-1.3,0.8-2,1.1
		c-0.3,0.1-0.6,0.3-0.9,0.4h0l-0.5,0.2c-0.8,0.3-1.5,0.5-2.3,0.7c-7.9,1.9-14.8,6.9-19.1,13.8c-3,5.1-4.9,10.8-5.5,16.7
		c-0.4,2.4-0.5,4.9-0.3,7.4c0.4,3.4,2.1,6.5,4.8,8.6c3.8,2.9,9.1,4.1,13.9,3.8c1.1,0,2-0.7,2.5-1.7c0.2-0.8,0.6-1.5,1-2.2
		c0.1-0.2,0.2-0.3,0.3-0.5c0.4-0.5-0.4,0.3,0.1-0.1l0.4-0.3c0.3-0.2-0.4,0.1,0.2-0.1l0.4-0.2c-0.6,0.3-0.2,0.1,0,0l0.5-0.1
		c0.6-0.2-0.6,0.1,0,0c0.9-0.1,1.8-0.2,2.6-0.2c5.2-0.1,10.6,0.1,15.7-1.5c8.6-2.6,13.5-11.2,16-19.3c0.7-2.3,1.3-4.6,1.6-6.9
		l-3.8,2c5,2.2,11.2,2.7,16.2,0.5c4.7-2,7.5-7.8,4.7-12.4c-2.6-4.3-8.8-5.7-13.3-6.6c-2.6-0.5-5.2-0.9-7.9-1.4c-2.4-0.4-4.8-0.7-7-2
		c-3.8-2.4-6.8-5.8-8.9-9.9C328.6,148.4,324.1,150.5,325.5,153z" fill="#000005"></path><path class="st0" d="M288.3,187.1c0,0-11.4,2.9-13.2-3.3s5.5-4.6,5.5-4.6s-8.3-12.7,3.4-14.9c0,0-9.5-9.6-1.8-18.5
		s22.8-2.9,22.8-2.9s-0.2-13.7,11.6-11.8s8.8,10.1,8.8,10.1s7.5,1.1,7.7,5.8s-5.6,6.5-5.6,6.5s-2.3,13.5-12.6,11.4l-10.2,16.8
		c2,4,1.8,8.7-0.5,12.5C300.4,200.6,287.7,195.9,288.3,187.1z" fill="#000005"></path><path class="st0" d="M287.4,184.9c-0.4,0.1-0.8,0.2-1.3,0.3c-0.8,0.1-2.1,0.3-2.5,0.3c-1.2,0.1-2.4,0-3.5-0.1
		c-0.4-0.1-0.8-0.2-1.2-0.3c-0.1,0-0.3-0.1-0.4-0.1c0.2,0.1,0.2,0.1,0,0c-0.1-0.1-0.8-0.6-0.4-0.2c-0.1-0.1-0.8-0.7-0.3-0.3
		c-0.1-0.1-0.2-0.2-0.2-0.4c0.1,0.2,0.1,0.2,0,0c-0.2-0.5-0.3-1-0.4-1.5c0-0.5,0.3-0.9,0.7-1c0.2-0.1,0.2-0.1,0,0
		c0.1,0,0.2-0.1,0.3-0.1l0.7-0.1c0.4-0.1-0.3,0,0.3,0h0.5c0.3,0,0.7,0.1,1,0.1c0.6,0.1-0.1,0-0.1,0c2,0.4,3.1-1.4,2-3.1
		c-0.1-0.1-0.2-0.3-0.3-0.5l-0.1-0.2c-0.2-0.4,0.3,0.5,0.1,0.1s-0.3-0.5-0.4-0.8c-0.3-0.6-0.6-1.2-0.8-1.9c-0.1-0.4-0.3-0.7-0.4-1.1
		c-0.2-0.5,0.1,0.3,0-0.2c-0.1-0.2-0.1-0.4-0.2-0.7c-0.1-0.4-0.1-0.8-0.2-1.2c-0.1-0.3-0.1-0.6,0-0.8c0-0.7,0.2-1.3,0.5-1.9
		c0.1-0.3,0.3-0.5,0.5-0.7c0.2-0.3,0.5-0.5,0.8-0.7c0.9-0.6,2-1,3.1-1.1c2-0.4,1.4-2.6,0.4-3.7c-0.1-0.1-0.4-0.5-0.1-0.1l-0.1-0.1
		l-0.5-0.6c-0.4-0.5-0.7-0.9-1-1.4c-0.3-0.5-0.6-1-0.9-1.5c-1.6-2.9-1.7-6.4-0.2-9.4c1.8-3.1,4.8-5.3,8.3-6c1.6-0.3,3.2-0.5,4.7-0.4
		c0.7,0,1.4,0.1,2.2,0.2l1,0.1l0.9,0.1c1.7,0.3,3.4,0.8,5.1,1.4c1,0.4,2.5-0.2,2.5-1.4c0-1.2,0.1-2.3,0.4-3.4c0-0.2,0.1-0.4,0.1-0.7
		c-0.1,0.4,0.1-0.3,0.1-0.4c0.2-0.5,0.4-1.1,0.6-1.6c0.4-1,1-1.9,1.8-2.6c0.3-0.4,0.7-0.6,1.1-0.9c0.5-0.3,1-0.5,1.6-0.6
		c1.6-0.3,3.3-0.3,4.8,0.1c0.9,0.2,1.7,0.5,2.5,0.8c0.6,0.2,1.1,0.6,1.6,1c0.2,0.2,0.4,0.4,0.6,0.6c-0.4-0.4,0.1,0.2,0.2,0.4
		c0.4,0.4-0.1-0.2,0.1,0.2c0.1,0.3,0.2,0.5,0.3,0.8s-0.1-0.5,0,0c0,0.1,0,0.3,0.1,0.4s0.1,0.5,0.1,0.7c0-0.2,0-0.1,0,0.2
		c0,0.2,0,0.4,0,0.6s0,0.3-0.1,0.5s-0.1,0.6,0,0.2s0,0,0,0.1c-0.6,1.7,0.9,3.2,2.5,3.5c0.1,0,0.4,0.1,0,0s0.3,0.1,0.4,0.1
		c0.7,0.2,1.3,0.4,2,0.6c0,0,0.7,0.3,0.3,0.1l0.5,0.2c0.2,0.1,1.1,0.7,0.8,0.4c0.2,0.1,0.3,0.2,0.5,0.4c0.1,0.1,0.2,0.2,0.3,0.2
		v-0.1c0.4,0.5,0.3,0.2,0.4,0.8c0-0.2,0,0.5,0,0.7c0,0.5-0.2,0.9-0.4,1.4c-0.4,0.6-1,1.1-1.6,1.4c-0.6,0.4-1.2,0.8-1.9,1.1
		c-0.2,0.1-0.5,0.2-0.7,0.3s0.5-0.2,0.1,0c-0.7,0.2-1.3,0.8-1.4,1.5c0,0.2-0.1,0.3-0.1,0.5s-0.2,0.8,0,0.2c-0.1,0.3-0.1,0.5-0.2,0.8
		c-0.4,1.4-1,2.8-1.7,4.1c-1.6,2.8-4.4,5-8,4.4c-0.9-0.3-1.9,0.1-2.4,0.9l-9.3,15.2c-0.5,0.8-1.2,1.6-1,2.6c0.1,0.5,0.3,0.9,0.5,1.4
		c0.3,0.8,0.6,1.7,0.7,2.6c0.4,2.6-0.2,5.9-2,7.9c-1.1,1.1-2.6,1.6-4.1,1.4c-1.9-0.1-3.6-0.9-5-2.1c-0.6-0.6-1.1-1.2-1.5-2
		c-0.4-0.9-0.6-2-0.6-3c0-1.3-0.8-2.5-2-2.8c-0.9-0.4-2,0.1-2.4,1c-0.1,0.1-0.1,0.3-0.1,0.4c-0.4,6,4.2,11.1,9.8,12.6
		c2.6,0.8,5.3,0.5,7.7-0.7c3-1.7,4.5-5.5,4.8-8.8c0.3-2.8-0.3-5.7-1.5-8.2l0,1.7l10.2-16.8l-2.4,0.9c2.6,0.6,5.3,0.3,7.7-0.8
		c1.9-1.1,3.5-2.7,4.6-4.6c1.4-2.3,2.4-4.7,2.8-7.4l-1.4,1.5c4.3-1.4,8.1-5.4,6.6-10.1c-1.3-4.1-6.1-6.1-10-6.6l2.5,3.5
		c0.5-1.5,0.6-3.2,0.3-4.7c-0.7-3.7-3.6-6.2-7-7.6c-3.7-1.5-8.5-2.1-12.1-0.2c-2.6,1.5-4.4,4-5.2,6.9c-0.6,1.8-0.9,3.6-0.9,5.5
		l2.5-1.4c-5.1-2-10.6-2.6-16-1.6c-4.3,0.8-8,3.3-10.4,7c-2.2,3.8-2.5,8.4-0.8,12.5c1,2.7,2.6,5.1,4.6,7.1l0.4-3.7
		c-2.6,0.5-5.1,1.7-6.5,4c-1,1.8-1.3,4-0.9,6c0.5,2.9,1.6,5.6,3.2,8l2-3.1c-3.6-0.8-8.4,0-8.3,4.6c0,3,1.7,5.7,4.4,7
		c2.3,1.1,4.9,1.5,7.4,1.3c1.6-0.1,3.3-0.3,4.9-0.7C292.1,188.6,289.9,184.3,287.4,184.9z" fill="#000005"></path><path class="st1" d="M316.6,167.5c0,0-1.5-9.3-8.1-7.5s-9.4,22.5,2.4,22.1" fill="#FFFFFF"></path><path class="st0" d="M318.9,166.6c-0.3-2.3-1.3-4.4-2.9-6.2c-2.8-3-7.8-2.4-10.8,0c-2.5,2-3.8,5.2-4.5,8.2
		c-0.8,3.2-0.6,6.5,0.5,9.6c1.5,3.8,4.9,5.4,8.8,5.3c1.2-0.1,2.3-0.7,3-1.7c0.5-1.1-0.7-1.2-1.5-1.2c0.4,0-0.3,0-0.3,0
		c-0.2,0-0.4,0-0.6-0.1c-0.2,0-0.4-0.1-0.7-0.1c-0.6-0.1-1.1-0.4-1.5-0.7c-1-0.7-1.8-1.6-2.3-2.7c-1.1-2.5-1.4-5.3-1-8
		c0.2-1.3,0.5-2.7,0.9-3.9c0.2-0.6,0.4-1.1,0.7-1.6c0.2-0.3,0.3-0.6,0.5-0.9c0.1-0.1,0.1-0.2,0.2-0.3c-0.2,0.3,0.2-0.2,0.2-0.2
		s0.3-0.4,0.5-0.6c0.4-0.4-0.3,0.3,0,0c0.1-0.1,0.1-0.1,0.2-0.2c0.5-0.1-0.5,0.3-0.1,0c0.1-0.1,0.5-0.2,0,0s0,0,0.1,0
		c-1.1,0.4,0.2,0-0.1,0.1c1.2-0.1,2.4,0.4,3.2,1.3c1.5,1.6,2.4,3.7,2.7,5.9C314.5,170,319.2,168.5,318.9,166.6L318.9,166.6z" fill="#000005"></path><path class="st0" d="M332.4,183.2c0.2,1.2,0.5,2.4,1,3.5c1,2.4,2.7,4.4,4.9,5.7c1.6,0.9,3.4,1.3,5.3,1.3c0.8,0.1,1.5-0.6,1.5-1.3
		c0-0.1,0-0.2,0-0.3c-0.2-0.9-1.1-1.6-2.1-1.6h-0.6h-0.2c-0.3,0,0.1,0,0.1,0c-0.3-0.1-0.7-0.1-1.1-0.2l-0.4-0.1l-0.2-0.1
		c-0.2-0.1,0.5,0.2,0.1,0s-0.6-0.2-0.8-0.4s-0.2-0.1-0.4-0.2s0.4,0.3,0,0s-0.5-0.4-0.7-0.5l-0.3-0.3c-0.3-0.3,0.3,0.3,0,0
		s-0.4-0.4-0.5-0.6s-0.3-0.4-0.4-0.6c-0.1-0.1-0.1-0.2-0.2-0.3c0.4,0.4,0.1,0.2,0,0c-0.2-0.4-0.4-0.8-0.6-1.3
		c-0.2-0.4-0.3-0.7-0.4-1.1c-0.1-0.2,0.1,0.5,0,0.1l-0.1-0.2c0-0.2-0.1-0.3-0.1-0.5c-0.1-0.3-0.2-0.7-0.2-1
		C335.7,181.2,332,180.9,332.4,183.2L332.4,183.2z" fill="#000005"></path><circle class="st0" cx="331.9" cy="166.5" r="1.7" fill="#000005"></circle><path class="st0" d="M51.2,296.2h15.2c1,0,1.6-0.7,1.1-1.7c-0.6-1.1-1.7-1.8-3-1.9H49.4c-1,0-1.6,0.7-1.1,1.7
		C48.9,295.4,50,296.1,51.2,296.2L51.2,296.2z" fill="#000005"></path><path class="st0" d="M31.1,278.9h24c1.1,0,2.6-0.4,3.1-1.5s-0.5-1.9-1.5-1.9h-24c-1.1,0-2.6,0.4-3.1,1.5S30.1,278.9,31.1,278.9
		L31.1,278.9z" fill="#000005"></path><path class="st0" d="M51.7,262.1H77c0.7,0,2.6-0.2,3-1s-1.5-0.8-1.9-0.8H52.9c-0.7,0-2.6,0.2-3,1S51.4,262.1,51.7,262.1L51.7,262.1
		z" fill="#000005"></path><path class="st0" d="M267.7,197c0.2,9.6,6.7,18.3,14.4,23.4c8,5.3,17.6,8.1,27.1,6.2c5.6-1.2,10.9-3.5,15.6-6.9
		c0.3-0.2-1.9-1.4-2.1-1.5c-0.5-0.2-1.9-1-2.5-0.6c-7.2,5-16.1,8.2-25,7.1c-7.6-0.9-13.8-5.6-18.1-11.8c-3-4-4.7-8.9-4.9-13.9
		c0-0.6-1.6-1.2-2.1-1.5C270,197.6,267.7,196.6,267.7,197L267.7,197z" fill="#000005"></path><path class="st0" d="M249.9,198.6c-0.7,7.5,3,14.3,7.8,19.8c2.4,2.7,5,5.3,7.7,7.6c2.6,2.3,5.8,4.2,9.3,4.6
		c1.2,0.3,2.5-0.5,2.8-1.7c0.1-1.3-0.8-2.4-2.1-2.6c-2.9-0.3-5.1-2-7.2-3.9c-2.3-2-4.4-4.2-6.5-6.5c-4-4.5-7.5-10.2-6.9-16.5
		C255.1,196.6,250.2,195.8,249.9,198.6L249.9,198.6z" fill="#000005"></path></g><g id="cloud"><path class="st1" d="M85.9,154.4c0,0-8-8.9-19.2-6.1c-2.5,0.6-4.7,2-6.3,4c-4.8,6.1,0.8,14.1,9.4,14.1l98.1-0.2
		c7.1,0,10.2-7.6,4.5-11.2c-6.8-4.2-15.6-0.7-15.6-0.7s15.3-18.5-2.8-37.5s-44.5-0.8-41.7,19C112.4,135.9,83.6,121.2,85.9,154.4z"></path><path class="st2" d="M87.8,152.8c-5.3-5.7-13.2-8.1-20.8-6.4c-5.1,1.2-10.5,5.4-10.7,11.1c-0.1,4.8,3.5,8.6,7.8,10.2
		c3,1.1,6.1,0.8,9.2,0.8h14.4l42.5-0.1l33.5-0.1c4,0,7.9,0.1,11.1-2.8c3.4-3,4.1-8.2,0.5-11.3c-4-3.5-10.3-3.6-15.2-2.6
		c-1.2,0.2-2.3,0.6-3.4,1l2.2,2.5c2.4-3.1,4.1-6.6,5.2-10.4c2.3-7.7,1.3-16.1-3-23c-4.7-7.7-12.3-14-21.5-14.8
		c-7.6-0.5-15.1,2.2-20.6,7.4c-6.2,5.7-9.9,13.9-8.8,22.4l3.7-2.7c-3.3-1.6-6.9-2.7-10.5-3.1c-6.9-0.9-13.7,1.4-17.2,7.8
		c-2.8,5-2.8,11.1-2.5,16.6c0.1,1.2,1.8,1.3,2.6,1c1.2-0.3,2-1.4,2-2.6c-0.3-4.5-0.2-9.5,1.6-13.5c0.3-0.6,0.6-1.2,1-1.7
		c0.2-0.3,0.4-0.6,0.7-0.9c0.4-0.5-0.4,0.4,0-0.1c0.2-0.2,0.3-0.3,0.5-0.5s0.5-0.4,0.8-0.6c-0.6,0.5,0.2-0.1,0.4-0.2
		s0.6-0.3,0.8-0.5c-0.7,0.4,0.3-0.1,0.6-0.2s0.6-0.2,0.9-0.3l0,0c0.2-0.1,0.4-0.1,0.6-0.1c0.7-0.1,1.3-0.2,2-0.3h0.4
		c0.3,0-0.6,0,0,0h1c0.7,0,1.3,0.1,2,0.1s1.2,0.2,1.8,0.3l0.4,0.1c-0.5-0.1,0,0,0.1,0c0.3,0.1,0.7,0.1,1,0.2c1,0.3,2.1,0.6,3.1,0.9
		c1.1,0.4,2.2,0.9,3.3,1.4c1.5,0.8,3.9-1.1,3.7-2.7c-1.7-12.7,9.4-24.5,21.7-24.2c8,0.2,14.7,5.3,19.1,11.6
		c4.5,6.1,6.1,13.8,4.3,21.2c-0.7,2.6-1.7,5.1-3.1,7.5c0.3-0.5-0.1,0.2-0.2,0.4l-0.4,0.6c-0.2,0.3-0.4,0.6-0.6,0.9
		c-0.2,0.3-0.4,0.5-0.6,0.8c-1.4,1.6,0.5,3.2,2.2,2.5c2.9-1.1,6.1-1.5,9.2-1c3.4,0.5,8.3,3.2,6.2,7.1c-0.1,0.2-0.3,0.4-0.4,0.6
		c-0.1,0.1-0.2,0.2-0.4,0.4s-0.7,0.5-0.3,0.2c-0.7,0.5-1.5,0.8-2.4,0.8c-0.2,0-0.5,0-0.7,0c-0.9,0-1.8,0-2.6,0h-30l-40.8,0.1
		c-8,0-15.9,0-23.9,0c-2.2,0.1-4.3-0.3-6.2-1.4c-3.1-1.9-5.3-5.8-3.3-9.2c2.3-4,7.9-4.5,12-3.7c3.4,0.8,6.5,2.4,9.1,4.7
		c0.5,0.4,0.9,0.8,1.3,1.3c0.8,0.9,2.6,0.1,3.3-0.5c0.9-0.6,1.1-1.7,0.5-2.6C87.9,152.9,87.8,152.8,87.8,152.8z"></path><path class="st1" d="M409.1,117.3c0,0-62.2,0.5-68.5-0.9s-13.7-12.2-6.7-24.9s17.5-9,17.5-9s-0.9-17.8,20.8-16.8
		s20.8,21.2,20.8,21.2s16.3,0.7,14.3,13.8c0,0,7.6-2.8,11.6,6.9S409.1,117.3,409.1,117.3z"></path><path class="st2" d="M408.6,114.9c-4.2,0-8.3,0-12.5,0.1c-8.8,0-17.6,0-26.5,0c-4.4,0-8.9-0.1-13.3-0.2l-5.7-0.1
		c-0.1,0-0.7,0-0.5,0h-0.4h-1.3l-2.3-0.1c-1.2,0-2.4-0.1-3.5-0.2c-0.7-0.1-1.4-0.1-2.1-0.3c-0.8-0.2-1.6-0.6-2.2-1.2
		c-0.2-0.2-0.5-0.4-0.7-0.6c-0.1-0.1-0.2-0.2-0.3-0.3c-2.4-2.4-3.7-5.6-3.9-8.9c-0.4-6.3,3-13.5,8.5-16.9c1.6-1,3.4-1.6,5.3-1.7
		c0.4,0,0.8,0,1.2,0c0.1,0-0.4,0,0.1,0h0.6c0.5,0.1,1,0.2,1.5,0.2c0.8,0.2-0.3-0.1,0,0c1.3,0.4,3.1-0.2,3-1.8c0-0.6,0-1.2,0.1-1.8
		c0-0.3,0.1-0.6,0.1-0.9s0.1-0.7,0,0c0-0.2,0.1-0.3,0.1-0.5c0.2-0.8,0.4-1.6,0.6-2.3c0.1-0.4,0.3-0.8,0.5-1.2s-0.2,0.3,0.1-0.2
		c0.1-0.2,0.2-0.5,0.4-0.7c0.2-0.4,0.5-0.8,0.8-1.2l0.5-0.6c0.1-0.1,0.5-0.6,0.4-0.5c1.5-1.6,3.4-2.9,5.5-3.6c6.2-2.2,13-1.8,19,1
		c2,1,3.8,2.5,5.2,4.3c0.3,0.4,0.6,0.8,0.9,1.3c-0.3-0.5,0.1,0.2,0.2,0.3c0.2,0.3,0.3,0.6,0.5,0.9c0.5,0.9,0.8,1.8,1.2,2.8
		c-0.2-0.6,0.1,0.2,0.1,0.4s0.1,0.4,0.2,0.7c0.1,0.5,0.2,1,0.3,1.5c0.2,0.8,0.3,1.6,0.4,2.4c0.1,0.6,0-0.5,0,0v0.4
		c0,0.2,0,0.5,0,0.7s0,0.4,0,0.6c0,1.3,0.9,2.5,2.2,2.7c0.8,0,1.5,0.1,2.3,0.3c0.8,0.1,1.6,0.3,2.4,0.5c0.4,0.1-0.3-0.1,0.3,0.1
		c0.2,0.1,0.4,0.1,0.6,0.2c0.5,0.2,0.9,0.3,1.4,0.6s0.9,0.4,1.3,0.6c-0.5-0.3,0.2,0.2,0.3,0.2s0.5,0.3,0.7,0.5l0.6,0.5
		c0.1,0.1,0.5,0.5,0.1,0.1c0.4,0.4,0.8,0.7,1.2,1.2c0.4,0.5-0.2-0.3,0.1,0.2c0.1,0.3,0.3,0.5,0.4,0.8c0,0.1,0.4,0.9,0.2,0.5
		c0.1,0.3,0.2,0.6,0.2,0.9c0.2,1.3,0.2,2.5,0,3.8c-0.1,1.5,1.1,2.7,2.5,2.7c0.3,0,0.6,0,0.9-0.1l0.2-0.1c0.4-0.1-0.4,0.1-0.2,0
		c0.2,0,0.3,0,0.5-0.1c0.3-0.1,0.7-0.1,1-0.1h0.3c0.3,0-0.4,0-0.1,0s0.5,0,0.8,0.1c0.9,0.1,1.8,0.5,2.5,1c1.1,0.8,2,1.9,2.6,3.1
		c0.4,0.7,0.7,1.4,1,2.1c0.1,0.3,0.2,0.7,0.2,1c0,0.2,0,0.3,0.1,0.5c0-0.3,0,0,0,0.2s-0.1,0.8,0,0.3c-0.1,0.3-0.1,0.5-0.2,0.7
		c0,0.1-0.2,0.4,0,0c-0.1,0.1-0.1,0.2-0.2,0.3c-0.1,0.2-0.3,0.4-0.4,0.6c0.3-0.4-0.1,0.1-0.2,0.2c-0.2,0.2-0.4,0.3-0.6,0.4
		c-0.1,0.1-0.2,0.1-0.3,0.2c0.1,0,0.4-0.2,0,0c-0.2,0.1-0.4,0.2-0.7,0.3c-0.5,0.2-0.9,0.4-1.4,0.5c-0.2,0.1-0.4,0.1-0.6,0.2
		s0.4-0.1,0,0l-0.4,0.1C411.1,114.8,409.8,114.9,408.6,114.9c-1.4,0.1-2.1,1.6-1.8,2.7c0.3,1.3,1.5,2.2,2.8,2.1
		c3.8,0,8.5-1.1,10.9-4.2c2.2-2.7,1.6-6.4,0.2-9.3c-1.7-3.7-4.5-6.8-8.5-7.9c-2-0.6-4.1-0.5-6.1,0.2l3.4,2.6c0.8-4.7-1-9.5-4.8-12.4
		c-2.8-2.1-6.1-3.4-9.5-3.9c-0.7-0.1-1.5-0.2-2.2-0.3l2.2,2.7c0.3-7.6-3.5-15.9-10-20c-6.3-4-14.7-4.9-21.9-3.2
		c-5.3,1.3-10,4.4-12.4,9.4c-1.4,2.7-2.1,5.7-2,8.7l3-1.8c-2.8-0.9-5.8-0.9-8.6-0.1c-6.5,1.7-10.9,7.5-13.2,13.5
		c-2.6,6.6-1.6,14.2,2.6,19.9c2.3,3.1,5.7,5,9.5,5.4c7.2,0.7,14.6,0.6,21.8,0.7c9.5,0.1,19.1,0.1,28.6,0.1c3.7,0,7.4,0,11,0
		c1.8,0,3.7,0.1,5.5,0h0.3c1.2-0.2,2-1.2,1.8-2.4c0-0.1,0-0.2,0-0.2C411,115.9,409.9,114.9,408.6,114.9z"></path><path class="st2" d="M361.9,87.1c-2.1-4.6-7.4-7.3-12.3-7.4c-3,0-6,0.7-8.7,1.9c-1.2,0.4-1.8,1.7-1.4,2.9c0,0,0,0.1,0,0.1
		c0.6,1.2,2,1.6,3.2,1.1c0.6-0.2,1.2-0.5,1.8-0.7l0.8-0.2c0.1,0,0.9-0.2,0.5-0.1c1-0.2,2-0.4,3-0.4c0.2,0,0.6,0,0.2,0h0.7
		c0.4,0,0.8,0.1,1.2,0.1l0.5,0.1c0.4,0.1-0.4-0.1,0.1,0c0.4,0.1,0.7,0.2,1,0.3l0.9,0.4c0.1,0.1-0.4-0.2,0,0l0.4,0.3
		c0.5,0.3,0.9,0.7,1.4,1c-0.6-0.4,0,0.1,0.2,0.2s0.4,0.4,0.5,0.6s0.5,0.6,0.8,1l0.1,0.2c0.2,0.2-0.3-0.6-0.1-0.2
		c0.1,0.1,0.1,0.2,0.2,0.4c0.1,0.1,0.1,0.2,0.2,0.3C358.4,91.5,363.1,89.8,361.9,87.1L361.9,87.1z"></path></g></svg>